# xmcd
#
# Track frame offsets: 
#        151
#        10762
#        26229
#        38549
#        50098
#        64042
#        71668
#        87178
#        100772
#        114555
#        126083
#        141276
#        155029
#
# Disc length: 2268 seconds
#
# Revision: 0
# Processed by: cddbd v1.5.2PL0 Copyright (c) Steve Scherf et al.
# Submitted via: ExactAudioCopy v0.99pb3
#
DISCID=b008da0d
DTITLE=Otis Spann - Someday
DYEAR=2012
DGENRE=Blues
TTITLE0=Chicken Shack
TTITLE1=Country Boy
TTITLE2=Somesay (Acoustic)
TTITLE3=Come Back, Baby
TTITLE4=Meet Me In The Bottom
TTITLE5=Spann's Boogie
TTITLE6=Someday (Electric)
TTITLE7=Blind Man
TTITLE8=Back Bay Shuffle
TTITLE9=St. Louis Blues
TTITLE10=Cold Feeling Blues
TTITLE11=Spann's Blues
TTITLE12=Blues Don't Love Nobody
EXTD=
EXTT0=
EXTT1=
EXTT2=
EXTT3=
EXTT4=
EXTT5=
EXTT6=
EXTT7=
EXTT8=
EXTT9=
EXTT10=
EXTT11=
EXTT12=
PLAYORDER=
